<svg xmlns="http://www.w3.org/2000/svg" width="256" height="82" viewBox="0 0 256 82" fill="none" wtx-context="3D819272-229A-4649-BF76-0B9902B2E0FF">
  <path d="M40.3911 7.53638C32.5689 7.53638 25.4104 10.5225 20.0059 15.3572L29.677 26.4959C32.4741 23.8416 36.2667 22.23 40.3911 22.23C49.0193 22.23 56.0355 29.245 56.0355 37.8716C56.0355 46.4982 49.0193 53.5133 40.3911 53.5133C31.763 53.5133 24.7467 46.4982 24.7467 37.8716H10.003C10.003 54.6508 23.6089 68.2543 40.3911 68.2543C57.1733 68.2543 70.7793 54.6508 70.7793 37.8716C70.7793 21.1398 57.1733 7.53638 40.3911 7.53638Z" fill="white"/>
  <path d="M38.4474 25.4532L21.9022 6.44623C11.3778 15.926 4.78815 29.6717 4.78815 44.9815H29.9615C29.9615 37.3029 33.2326 30.3352 38.4474 25.4532Z" fill="url(#paint0_linear)"/>
  <path d="M24.7467 37.9191H10.003C10.003 40.3364 10.2874 42.7064 10.8089 44.9815H26.3585C25.3156 42.8486 24.7467 40.4786 24.7467 37.9191Z" fill="#E84720"/>
  <path d="M29.677 26.496C31.4785 24.7896 33.7067 23.5099 36.1718 22.8463L26.0267 11.1862C23.8459 12.3237 21.8074 13.7457 20.0059 15.4047L29.677 26.496Z" fill="#E84720"/>
  <path d="M147.247 26.1641V56.926H153.268V30.8566C154.833 30.7618 157.819 30.6196 159.668 30.6196C163.84 30.8566 165.167 32.7052 165.167 40.4786V56.926H171.236V41.6162C171.236 29.9561 168.201 25.8324 159.336 25.6428C154.927 25.5954 147.247 26.1641 147.247 26.1641Z" fill="white"/>
  <path d="M141.511 26.0693H135.348V56.926H141.511V26.0693Z" fill="white"/>
  <path d="M119.893 56.926H126.056V33.6057H130.56V28.6763H126.056V26.3063C126.056 21.8982 127.621 21.0925 130.513 21.0925H141.511V16.0682C141.511 16.0682 132.409 16.0682 128.664 16.0682C122.833 16.0682 119.846 19.5283 119.846 26.3063V28.7237H116.622V33.6057H119.846L119.893 56.926Z" fill="white"/>
  <path d="M187.781 25.5006C178.394 25.5006 175.218 29.5295 175.218 41.474C175.218 47.6832 176.071 51.5225 178.015 53.9873C179.911 56.4046 182.898 57.4474 187.686 57.4474C192.474 57.4474 199.68 57.0682 199.68 57.0682V52.0439C199.68 52.0439 189.393 52.4231 187.212 52.4231C181.333 52.4231 181.096 48.5838 181.096 39.7202C181.096 31.9942 183.324 30.4775 187.212 30.4775C189.677 30.4775 192.948 31.0462 193.612 31.141V44.6023L199.68 44.4127V16.5896H193.612V25.8798C192.948 25.8798 190.483 25.5006 187.781 25.5006Z" fill="white"/>
  <path d="M98.2756 17.1583C91.8282 17.1583 87.1822 17.7271 87.1822 17.7271V44.0335C87.1822 44.0335 92.8237 44.3179 93.8193 44.3179C93.8193 43.7491 93.8193 22.5618 93.8193 22.5618C94.3881 22.5144 96.5215 22.3248 98.7496 22.3248C106.098 22.3248 106.619 24.4103 106.619 37.3028C106.619 50.0531 106.145 51.9017 98.7496 51.9017C96.237 51.9017 87.1822 51.4751 87.1822 51.4751V56.926C87.1822 56.926 92.3022 57.1629 98.2756 57.1629C105.244 57.1629 108.895 55.978 110.839 53.0392C112.83 50.0531 113.209 45.2184 113.209 37.3502C113.209 22.0878 112.071 17.1583 98.2756 17.1583Z" fill="white"/>
  <path d="M95.6681 65.6948C94.9096 65.2208 94.0089 64.9838 93.1081 64.9838C90.2637 64.9838 88.3674 67.022 88.3674 69.8185C88.3674 72.7098 90.4533 74.6532 93.0133 74.6532C93.9141 74.6532 95.0993 74.4162 95.7156 74.037L95.8104 75.7434C94.8622 76.1225 93.7244 76.1699 92.9659 76.1699C89.0311 76.1699 86.4237 73.6578 86.4237 69.7237C86.4237 65.9318 89.1733 63.3723 92.9659 63.3723C93.9141 63.3723 94.8622 63.5145 95.763 63.8936L95.6681 65.6948Z" fill="white"/>
  <path d="M101.689 66.7849C104.439 66.7849 106.287 68.7757 106.287 71.5248C106.287 74.1317 104.391 76.2647 101.689 76.2647C98.9393 76.2647 97.0904 74.1317 97.0904 71.5248C97.0904 68.7757 98.9393 66.7849 101.689 66.7849ZM101.689 74.9375C103.633 74.9375 104.533 73.1838 104.533 71.5722C104.533 69.8658 103.49 68.2069 101.689 68.2069C99.8874 68.2069 98.8444 69.8658 98.8444 71.5722C98.8444 73.1364 99.7452 74.9375 101.689 74.9375Z" fill="white"/>
  <path d="M108.421 67.0219H110.033V68.4439H110.08C110.554 67.4011 111.787 66.7849 113.067 66.7849C115.39 66.7849 116.433 68.2543 116.433 70.6716V76.0277H114.773V71.3352C114.773 69.2023 114.299 68.2069 112.877 68.1121C110.981 68.1121 110.127 69.6288 110.127 71.8566V76.0277H108.468V67.0219H108.421Z" fill="white"/>
  <path d="M118.519 74.2739C119.182 74.7005 120.13 74.8901 120.604 74.8901C121.363 74.8901 122.311 74.5583 122.311 73.6103C122.311 71.9514 118.376 72.0936 118.376 69.5814C118.376 67.6855 119.799 66.7849 121.553 66.7849C122.311 66.7849 122.975 66.9271 123.638 67.1167L123.496 68.5861C123.117 68.3491 122.121 68.1121 121.742 68.1121C120.889 68.1121 120.13 68.4439 120.13 69.2023C120.13 71.0508 124.065 70.5294 124.065 73.4207C124.065 75.3641 122.501 76.2647 120.889 76.2647C120.036 76.2647 119.182 76.1699 118.424 75.7907L118.519 74.2739Z" fill="white"/>
  <path d="M134.021 76.0751H132.409V74.6531H132.361C131.887 75.6959 130.655 76.3121 129.375 76.3121C127.052 76.3121 126.009 74.8427 126.009 72.4254V67.0693H127.668V71.7618C127.668 73.8948 128.142 74.8901 129.564 74.9849C131.461 74.9849 132.314 73.4682 132.314 71.2404V67.0693H133.973V76.0751H134.021Z" fill="white"/>
  <path d="M136.96 62.756H138.619V76.0751H136.96V62.756Z" fill="white"/>
  <path d="M146.394 68.3491H143.976V73.2786C143.976 74.3213 144.593 74.8901 145.399 74.8901C145.92 74.8901 146.299 74.7479 146.536 74.5583V75.9803C146.157 76.0751 145.636 76.2173 145.114 76.2173C143.407 76.2173 142.317 75.4115 142.317 73.6104V68.3017H140.326V66.9745H142.364V64.9364L144.024 64.415V67.0219H146.441V68.3491H146.394Z" fill="white"/>
  <path d="M150.424 64.9838H148.527V63.0878H150.424V64.9838ZM148.622 67.0219H150.281V76.0751H148.622V67.0219Z" fill="white"/>
  <path d="M153.268 67.0219H154.88V68.4439H154.927C155.401 67.4011 156.634 66.7849 157.914 66.7849C160.237 66.7849 161.28 68.2543 161.28 70.6716V76.0277H159.621V71.3352C159.621 69.2023 159.147 68.2069 157.724 68.1121C155.828 68.1121 154.975 69.6288 154.975 71.8566V76.0277H153.316V67.0219H153.268Z" fill="white"/>
  <path d="M171.994 75.6485C171.994 78.3976 170.572 79.9618 167.348 79.9618C166.4 79.9618 165.547 79.8196 164.124 79.3456L164.314 77.7814C165.594 78.3502 166.353 78.5872 167.585 78.5872C169.339 78.5872 170.382 77.4023 170.382 75.5063V74.6057H170.335C169.624 75.5537 168.438 76.0277 167.301 76.0277C164.693 76.0277 163.413 73.8947 163.413 71.5722C163.413 69.2497 164.741 66.7849 167.443 66.7849C169.055 66.7849 169.908 67.3537 170.43 68.3491H170.477V67.0219H172.041V75.6485H171.994ZM170.335 71.667C170.335 69.771 169.481 68.1595 167.68 68.1595C165.973 68.1595 165.167 70.008 165.167 71.5248C165.167 73.2312 166.116 74.7005 167.68 74.7005C169.244 74.7005 170.335 73.326 170.335 71.667Z" fill="white"/>
  <defs>
    <linearGradient id="paint0_linear" x1="4.81005" y1="25.7216" x2="38.4272" y2="25.7216" gradientUnits="userSpaceOnUse">
      <stop stop-color="#FFEB1A"/>
      <stop offset="1" stop-color="#E63D20"/>
    </linearGradient>
  </defs>
</svg>
