<svg version="1.1" id="Layer_1_cache1" xmlns="http://www.w3.org/2000/svg" xmlns:xlink="http://www.w3.org/1999/xlink" x="0px" y="0px" viewBox="0 0 237.7 37" enable-background="new 0 0 237.7 37" xml:space="preserve" fit="" height="100%" width="100%" preserveAspectRatio="xMidYMid meet" focusable="false">
<g>
	<path fill="#7C878E" d="M154.1,14h0.8l2.5,3.8l2.5-3.8h0.8v7H160v-5.6l-2.5,3.7h0l-2.5-3.7V21h-0.8V14z"></path>
	<path fill="#7C878E" d="M162.8,14h5v0.7h-4.2v2.4h3.8v0.7h-3.8v2.4h4.3V21h-5.1V14z"></path>
	<path fill="#7C878E" d="M169.6,14h2.4c2.2,0,3.7,1.5,3.7,3.5v0c0,2-1.5,3.5-3.7,3.5h-2.4V14z M170.4,14.7v5.5h1.6
		c1.8,0,2.9-1.2,2.9-2.7v0c0-1.5-1.1-2.8-2.9-2.8H170.4z"></path>
	<path fill="#7C878E" d="M177.5,14h0.8v7h-0.8V14z"></path>
	<path fill="#7C878E" d="M180,20l0.5-0.6c0.7,0.7,1.4,1,2.4,1c0.9,0,1.6-0.5,1.6-1.2v0c0-0.6-0.3-1-1.8-1.3c-1.6-0.3-2.3-0.9-2.3-2
		v0c0-1.1,1-1.9,2.3-1.9c1,0,1.7,0.3,2.4,0.9l-0.5,0.6c-0.6-0.5-1.3-0.8-2-0.8c-0.9,0-1.5,0.5-1.5,1.1v0c0,0.7,0.4,1,1.9,1.4
		c1.6,0.3,2.3,0.9,2.3,2v0c0,1.2-1,2-2.4,2C181.7,21.1,180.8,20.7,180,20z"></path>
	<path fill="#7C878E" d="M187,14h0.8v7H187V14z"></path>
	<path fill="#7C878E" d="M189.9,14h0.7l4.4,5.6V14h0.8v7h-0.6l-4.5-5.7V21h-0.8V14z"></path>
	<path fill="#7C878E" d="M197.4,20l0.5-0.6c0.7,0.7,1.4,1,2.4,1c0.9,0,1.6-0.5,1.6-1.2v0c0-0.6-0.3-1-1.8-1.3
		c-1.6-0.3-2.3-0.9-2.3-2v0c0-1.1,1-1.9,2.3-1.9c1,0,1.7,0.3,2.4,0.9l-0.5,0.6c-0.6-0.5-1.3-0.8-2-0.8c-0.9,0-1.5,0.5-1.5,1.1v0
		c0,0.7,0.4,1,1.9,1.4c1.6,0.3,2.3,0.9,2.3,2v0c0,1.2-1,2-2.4,2C199.1,21.1,198.2,20.7,197.4,20z"></path>
	<path fill="#7C878E" d="M204.3,14h0.8v4.2l4-4.2h1l-3,3l3.1,3.9h-1l-2.7-3.4l-1.5,1.5V21h-0.8V14z"></path>
	<path fill="#7C878E" d="M154.1,25.5h0.8v6.2h3.9v0.7h-4.7V25.5z"></path>
	<path fill="#7C878E" d="M162.9,25.5h0.7l3.2,7H166l-0.8-1.8h-3.8l-0.8,1.8h-0.8L162.9,25.5z M164.8,29.9l-1.6-3.5l-1.6,3.5H164.8z"></path>
	<path fill="#7C878E" d="M168.3,25.5h3c0.8,0,1.4,0.2,1.8,0.6c0.3,0.3,0.4,0.7,0.4,1.1v0c0,0.9-0.6,1.4-1.1,1.6
		c0.8,0.2,1.5,0.7,1.5,1.7v0c0,1.2-1,1.9-2.5,1.9h-3.1V25.5z M172.7,27.3c0-0.7-0.5-1.1-1.5-1.1h-2.1v2.4h2.1
		C172.1,28.6,172.7,28.2,172.7,27.3L172.7,27.3z M171.3,29.3h-2.2v2.5h2.3c1.1,0,1.7-0.5,1.7-1.2v0
		C173.1,29.7,172.5,29.3,171.3,29.3z"></path>
	<path fill="#7C878E" d="M175.3,29L175.3,29c0-1.9,1.4-3.6,3.6-3.6c2.1,0,3.5,1.7,3.5,3.6v0c0,1.9-1.4,3.6-3.6,3.6
		C176.7,32.6,175.3,30.9,175.3,29z M181.5,29L181.5,29c0-1.6-1.2-2.9-2.7-2.9c-1.6,0-2.7,1.3-2.7,2.9v0c0,1.6,1.2,2.9,2.7,2.9
		C180.4,31.9,181.5,30.6,181.5,29z"></path>
	<path fill="#7C878E" d="M184.1,25.5h3c0.9,0,1.5,0.3,2,0.7c0.3,0.3,0.5,0.8,0.5,1.4v0c0,1.2-0.8,1.8-1.9,2l2.1,2.8h-1l-2-2.7h-2
		v2.7h-0.8V25.5z M187,29c1,0,1.8-0.5,1.8-1.4v0c0-0.9-0.7-1.4-1.8-1.4h-2.1V29H187z"></path>
	<path fill="#7C878E" d="M194,25.5h0.7l3.2,7H197l-0.8-1.8h-3.8l-0.8,1.8h-0.8L194,25.5z M195.9,29.9l-1.6-3.5l-1.6,3.5H195.9z"></path>
	<path fill="#7C878E" d="M200.3,26.2H198v-0.7h5.5v0.7h-2.3v6.2h-0.8V26.2z"></path>
	<path fill="#7C878E" d="M204.2,29L204.2,29c0-1.9,1.4-3.6,3.6-3.6c2.1,0,3.5,1.7,3.5,3.6v0c0,1.9-1.4,3.6-3.6,3.6
		C205.7,32.6,204.2,30.9,204.2,29z M210.5,29L210.5,29c0-1.6-1.2-2.9-2.7-2.9c-1.6,0-2.7,1.3-2.7,2.9v0c0,1.6,1.2,2.9,2.7,2.9
		C209.4,31.9,210.5,30.6,210.5,29z"></path>
	<path fill="#7C878E" d="M213.1,25.5h3c0.9,0,1.5,0.3,2,0.7c0.3,0.3,0.5,0.8,0.5,1.4v0c0,1.2-0.8,1.8-1.9,2l2.1,2.8h-1l-2-2.7h-2
		v2.7h-0.8V25.5z M216,29c1,0,1.8-0.5,1.8-1.4v0c0-0.9-0.7-1.4-1.8-1.4h-2.1V29H216z"></path>
	<path fill="#7C878E" d="M220.4,25.5h0.8v7h-0.8V25.5z"></path>
	<path fill="#7C878E" d="M223.3,29.5v-4h0.8v4c0,1.5,0.8,2.3,2.1,2.3c1.3,0,2.1-0.8,2.1-2.3v-4h0.8v4c0,2-1.2,3.1-2.9,3.1
		C224.4,32.6,223.3,31.5,223.3,29.5z"></path>
	<path fill="#7C878E" d="M231,25.5h0.8l2.5,3.8l2.5-3.8h0.8v7h-0.8v-5.6l-2.5,3.7h0l-2.5-3.7v5.6H231V25.5z"></path>
</g>
<rect x="133.1" y="4.7" fill="#7C878E" width="0.5" height="35.2"></rect>
<path fill="#0C539E" d="M2.6,36.8V10.9l15.9,0c-0.3-1.5-1.7-2.6-3.3-2.6h-12C1.7,8.3,0,9.8,0,11.1v22.4C0,35.1,1.1,36.5,2.6,36.8
	V10.9"></path>
<path fill="#0C539E" d="M3.8,21.6l14.7,0c-0.3-1.4-1.6-2.5-3.1-2.5H6.7v-4.5h8.8c1.5,0,2.8-1.1,3.1-2.5l-14.7,0V21.6"></path>
<path fill="#0C539E" d="M6.7,25.4h8.7c1.5,0,2.8-1.1,3.1-2.5l-14.6,0l0,13.9c1.5-0.3,2.8-1.6,2.8-3.3V25.4"></path>
<path fill="#0C539E" d="M90.4,10.9c0.3-1.5,1.6-2.6,3.1-2.6h16.8c1.5,0,2.8,1.1,3.1,2.5L90.4,10.9"></path>
<path fill="#0C539E" d="M101.3,36.8c-1.5-0.3-2.5-1.6-2.5-3.1l0-18.9h-5.2c-1.5,0-2.8-1.1-3.1-2.6l10.9,0V36.8"></path>
<path fill="#0C539E" d="M102.6,12.2l10.9,0c-0.3,1.5-1.6,2.6-3.1,2.6h-5.2l0,18.9c0,1.5-1.1,2.8-2.6,3.1L102.6,12.2"></path>
<path fill="#0C539E" d="M61,36c1.2,1,3,1,4.2,0l-11.9-9.8l-4,0l0,10.5c1.5-0.3,2.8-1.6,2.8-3.3v-4.7h0.4L61,36"></path>
<path fill="#0C539E" d="M39.1,8.6c-1.5,0.3-2.6,1.6-2.6,3.2l0,14.1c0,2.6-2.1,4.7-4.7,4.7c-2.6,0-4.7-2.1-4.7-4.7l0-14.1
	c0-1.6-1.1-2.9-2.6-3.2l0,17.3c0,4,3.3,7.3,7.3,7.3c4,0,7.3-3.3,7.3-7.3L39.1,8.6"></path>
<path fill="#0C539E" d="M43,11.8c0-1.6-1.2-2.9-2.6-3.2l0,17.3c0,4.8-3.9,8.6-8.6,8.6s-8.6-3.9-8.6-8.6V8.6
	c-1.5,0.3-2.6,1.6-2.6,3.2l0,13.9c0,6.2,5,11.3,11.3,11.3C38,37,43,31.9,43,25.7L43,11.8"></path>
<path fill="#0C539E" d="M55.7,10.9c4.2,0,7.7,3.4,7.7,7.7c0,4.2-3.4,7.7-7.7,7.7l-0.6,0L66,35c0.7-1.4,0.4-3.1-0.8-4.1l-4.9-4
	c3.3-1.6,5.6-5,5.6-8.9c0-5.4-4.4-9.8-9.8-9.8h-7.4c-1.6,0-3.3,1.5-3.3,2.8v22.4c0,1.6,1.1,2.9,2.6,3.3V10.9L55.7,10.9"></path>
<path fill="#0C539E" d="M49.3,25.2V12.1l6.3,0c3.6,0,6.5,3,6.5,6.6s-2.9,6.5-6.5,6.5L49.3,25.2z M55.4,22.8c2.3,0,4.1-1.8,4.1-4.1
	s-1.8-4.1-4.1-4.1l-3.3,0v8.2H55.4"></path>
<path fill="#0C539E" d="M75.8,18.7c-1.1,0-1.9-1-1.9-2.1c0-1.1,0.9-2,2-2l2.1,0h7.7c1.5,0,2.8-1.1,3.1-2.5l-11.2,0l-1.8,0
	c-2.6,0-4.6,2-4.6,4.6c0,2.6,2.1,4.7,4.6,4.7l5.1,0c3.5,0,6.4,2.9,6.4,6.4c0,3.5-2.9,6.4-6.4,6.4l-12.6,0c0.3,1.4,1.6,2.5,3.1,2.5
	h9.8c5,0,9-4,9-9c0-5-4-9-9-9L75.8,18.7"></path>
<path fill="#0C539E" d="M80.9,32.9c3,0,5.3-2.4,5.3-5.3c0-2.9-2.4-5.3-5.3-5.3h-5.1c-3.2,0-5.8-2.6-5.8-5.8c0-3.2,2.6-5.8,5.8-5.8
	l13.1,0c-0.3-1.4-1.6-2.5-3.1-2.5l-9.9,0c-4.6,0-8.4,3.7-8.4,8.4c0,4.6,3.7,8.4,8.4,8.4l4.5,0c1.5,0,2.7,1.2,2.7,2.7
	c0,1.5-1.2,2.7-2.7,2.7l-8.9,0c-1.5,0-2.8,0.9-3.1,2.5H80.9"></path>
<g>
	<path fill="#E2002B" d="M23.1,0c-1.5,0.3-2.6,1.6-2.6,3.2s1.1,2.9,2.6,3.2V0z"></path>
	<path fill="#E2002B" d="M24.5,0v6.4c1.5-0.3,2.6-1.6,2.6-3.2S26,0.3,24.5,0z"></path>
</g>
<g>
	<path fill="#E2002B" d="M39.1,0c-1.5,0.3-2.6,1.6-2.6,3.2s1.1,2.9,2.6,3.2V0z"></path>
	<path fill="#E2002B" d="M40.4,0v6.4C41.9,6.1,43,4.8,43,3.2S41.9,0.3,40.4,0z"></path>
</g>
</svg>
