<svg xmlns="http://www.w3.org/2000/svg" xmlns:xlink="http://www.w3.org/1999/xlink" version="1.1" id="Layer_1" x="0px" y="0px" width="2026.4px" height="862.7px" viewBox="0 0 2026.4 862.7" style="enable-background:new 0 0 2026.4 862.7;" xml:space="preserve" wtx-context="758BEAF0-2CA0-4282-B8B5-A3EF650998E2">
<style type="text/css">
	.st0{fill:#01ACFA;}
</style>
<g>
	<g id="Layer_1-2">
		<path class="st0" d="M473.5,263.7c13.4,2.1,16.1-0.7,17.9-13.4c4.4-29.6,13.2-58.4,26.1-85.4c17.6-36,45.4-75.6,84.6-102.2    c39.5-25.5,83-44.2,128.6-55.3c30.8-6.8,62.4-8.9,93.8-6.2c56.4,5.1,87.6,21.2,103.3,42c5.2,6.9,8.3,15.2,9,23.9    c0.5,10.4-4,23.9-19,37.1c-14.9,13.3-45.4,29-87.5,43.1c-43.7,14.5-103.4,29.9-163,43.6c-34.5,7.8-68.6,17.6-102,29.3    c-39.4,13.4-51.3,52.6-26.8,64.6c27.6,13.5,53.3,30.4,76.7,50.2c37.5,29.8,71.8,63.5,102.2,100.5    c37.1,45.3,97.8,131.7,119.5,215.6c24.2,92.1,9.1,179.4-43,203.8c-51.1,24-119.2-10.6-167-60.3c-45.4-46.9-77.2-102.4-107.2-187.6    c-25.9-73.7-36.3-180-36.3-235.8c0-18.6,0-22.5,0.5-39.3c1.7-14.6-37.7-26.8-80,0.5c-48.2,31-95.3,87.1-123.2,119.8    c-12.1,14.3-28.6,35.2-46,57.1c-23,28.8-48.3,58.8-71.4,75.6c-34.6,24.7-90.5,35.4-129.8,7.6C11.7,577,0,547.6,0,517.7    c-0.3-20.6,5-40.9,15.4-58.8c13.4-23,34.6-47.7,68.9-76c45.2-35.1,95.2-63.6,148.4-84.6C319,263.6,411.9,252.7,473.5,263.7z"/>
	</g>
</g>
<g id="New">
	<g id="Telenor.no_Footer_Desktop" transform="translate(-125.000000, -564.000000)">

	</g>
</g>
</svg>
