<svg xmlns="http://www.w3.org/2000/svg" width="187" height="60" viewBox="0 0 187 60" fill="none" wtx-context="961C6382-AA9D-464F-BAA3-48F2263C55E6">
<path d="M29.5044 5.5144C23.7905 5.5144 18.5615 7.69938 14.6137 11.2369L21.6781 19.3872C23.7213 17.445 26.4916 16.2658 29.5044 16.2658C35.807 16.2658 40.9322 21.3988 40.9322 27.7109C40.9322 34.0231 35.807 39.156 29.5044 39.156C23.2018 39.156 18.0766 34.0231 18.0766 27.7109H7.30682C7.30682 39.9884 17.2455 49.9421 29.5044 49.9421C41.7633 49.9421 51.702 39.9884 51.702 27.7109C51.702 15.4682 41.7633 5.5144 29.5044 5.5144Z" fill="#808184"/>
<path d="M28.0847 18.6243L15.9989 4.7168C8.31114 11.6532 3.49762 21.711 3.49762 32.9133H21.886C21.886 27.2948 24.2754 22.1966 28.0847 18.6243Z" fill="url(#paint0_linear)"/>
<path d="M18.0766 27.7456H7.30682C7.30682 29.5144 7.5146 31.2485 7.89553 32.9132H19.254C18.4922 31.3525 18.0766 29.6184 18.0766 27.7456Z" fill="#E84720"/>
<path d="M21.6782 19.3872C22.9941 18.1387 24.6217 17.2023 26.4224 16.7167L19.0117 8.18494C17.4187 9.01731 15.9296 10.0578 14.6137 11.2716L21.6782 19.3872Z" fill="#E84720"/>
<path d="M107.56 19.1444V41.6531H111.958V22.5779C113.1 22.5086 115.282 22.4045 116.633 22.4045C119.68 22.5779 120.65 23.9305 120.65 29.6184V41.6531H125.082V30.4508C125.082 21.919 122.866 18.9016 116.39 18.7629C113.17 18.7282 107.56 19.1444 107.56 19.1444Z" fill="#808184"/>
<path d="M103.369 19.0751H98.8676V41.6531H103.369V19.0751Z" fill="#808184"/>
<path d="M87.5783 41.6532H92.0801V24.5896H95.37V20.9826H92.0801V19.2485C92.0801 16.0231 93.2229 15.4335 95.3353 15.4335H103.369V11.7572C103.369 11.7572 96.7205 11.7572 93.9848 11.7572C89.7253 11.7572 87.5437 14.289 87.5437 19.2485V21.0173H85.1888V24.5896H87.5437L87.5783 41.6532Z" fill="#808184"/>
<path d="M137.168 18.6589C130.311 18.6589 127.991 21.6069 127.991 30.3468C127.991 34.8901 128.614 37.6994 130.034 39.5028C131.419 41.2716 133.601 42.0346 137.099 42.0346C140.596 42.0346 145.86 41.7572 145.86 41.7572V38.0809C145.86 38.0809 138.345 38.3583 136.752 38.3583C132.458 38.3583 132.285 35.5491 132.285 29.0635C132.285 23.4104 133.913 22.3005 136.752 22.3005C138.553 22.3005 140.943 22.7167 141.427 22.7861V32.6358L145.86 32.4971V12.1387H141.427V18.9364C140.943 18.9364 139.142 18.6589 137.168 18.6589Z" fill="#808184"/>
<path d="M71.7872 12.5549C67.0775 12.5549 63.6838 12.9711 63.6838 12.9711V32.2197C63.6838 32.2197 67.8048 32.4278 68.532 32.4278C68.532 32.0116 68.532 16.5087 68.532 16.5087C68.9475 16.474 70.5059 16.3353 72.1335 16.3353C77.5011 16.3353 77.882 17.8613 77.882 27.2948C77.882 36.6243 77.5357 37.9769 72.1335 37.9769C70.2981 37.9769 63.6838 37.6648 63.6838 37.6648V41.6532C63.6838 41.6532 67.4238 41.8266 71.7872 41.8266C76.8777 41.8266 79.5442 40.9596 80.964 38.8093C82.4185 36.6243 82.6955 33.0867 82.6955 27.3295C82.6955 16.1619 81.8644 12.5549 71.7872 12.5549Z" fill="#808184"/>
<path d="M69.8825 48.0694C69.3285 47.7226 68.6705 47.5492 68.0125 47.5492C65.9348 47.5492 64.5496 49.0405 64.5496 51.0868C64.5496 53.2024 66.0733 54.6243 67.9433 54.6243C68.6012 54.6243 69.467 54.4509 69.9172 54.1735L69.9864 55.422C69.2938 55.6995 68.4627 55.7341 67.9086 55.7341C65.0344 55.7341 63.1298 53.896 63.1298 51.0174C63.1298 48.2428 65.1383 46.37 67.9086 46.37C68.6012 46.37 69.2938 46.474 69.9518 46.7515L69.8825 48.0694Z" fill="#808184"/>
<path d="M74.2805 48.8671C76.289 48.8671 77.6395 50.3237 77.6395 52.3353C77.6395 54.2428 76.2543 55.8035 74.2805 55.8035C72.2719 55.8035 70.9214 54.2428 70.9214 52.3353C70.9214 50.3237 72.2719 48.8671 74.2805 48.8671ZM74.2805 54.8324C75.7003 54.8324 76.3582 53.5491 76.3582 52.37C76.3582 51.1214 75.5964 49.9075 74.2805 49.9075C72.9645 49.9075 72.2027 51.1214 72.2027 52.37C72.2027 53.5145 72.8606 54.8324 74.2805 54.8324Z" fill="#808184"/>
<path d="M79.1979 49.0405H80.3753V50.0809H80.4099C80.7562 49.3179 81.6566 48.8671 82.5916 48.8671C84.2884 48.8671 85.0503 49.9422 85.0503 51.711V55.6301H83.8382V52.1965C83.8382 50.6359 83.492 49.9075 82.4531 49.8382C81.0679 49.8382 80.4445 50.948 80.4445 52.5781V55.6301H79.2325V49.0405H79.1979Z" fill="#808184"/>
<path d="M86.574 54.3468C87.0588 54.659 87.7514 54.7977 88.0977 54.7977C88.6518 54.7977 89.3444 54.5549 89.3444 53.8613C89.3444 52.6474 86.4701 52.7515 86.4701 50.9133C86.4701 49.526 87.509 48.8671 88.7903 48.8671C89.3444 48.8671 89.8292 48.9711 90.314 49.1098L90.2101 50.185C89.9331 50.0116 89.2058 49.8382 88.9288 49.8382C88.3055 49.8382 87.7514 50.0809 87.7514 50.6359C87.7514 51.9885 90.6257 51.6069 90.6257 53.7226C90.6257 55.1445 89.4829 55.8035 88.3055 55.8035C87.6821 55.8035 87.0588 55.7341 86.5047 55.4567L86.574 54.3468Z" fill="#808184"/>
<path d="M97.898 55.6648H96.7205V54.6243H96.6859C96.3396 55.3873 95.4392 55.8382 94.5042 55.8382C92.8074 55.8382 92.0455 54.7631 92.0455 52.9943V49.0752H93.2576V52.5087C93.2576 54.0694 93.6039 54.7977 94.6428 54.8671C96.0279 54.8671 96.6513 53.7573 96.6513 52.1272V49.0752H97.8633V55.6648H97.898Z" fill="#808184"/>
<path d="M100.045 45.9191H101.257V55.6647H100.045V45.9191Z" fill="#808184"/>
<path d="M106.936 50.0115H105.17V53.6185C105.17 54.3815 105.62 54.7977 106.209 54.7977C106.59 54.7977 106.867 54.6936 107.04 54.5549V55.5954C106.763 55.6647 106.382 55.7688 106.001 55.7688C104.755 55.7688 103.958 55.1792 103.958 53.8613V49.9769H102.504V49.0058H103.993V47.5144L105.205 47.1329V49.0404H106.971V50.0115H106.936Z" fill="#808184"/>
<path d="M109.88 47.5491H108.495V46.1619H109.88V47.5491ZM108.564 49.0405H109.776V55.6648H108.564V49.0405Z" fill="#808184"/>
<path d="M111.958 49.0405H113.135V50.0809H113.17C113.516 49.3179 114.416 48.8671 115.351 48.8671C117.048 48.8671 117.81 49.9422 117.81 51.711V55.6301H116.598V52.1965C116.598 50.6359 116.252 49.9075 115.213 49.8382C113.828 49.8382 113.204 50.948 113.204 52.5781V55.6301H111.992V49.0405H111.958Z" fill="#808184"/>
<path d="M125.636 55.3526C125.636 57.3642 124.597 58.5087 122.243 58.5087C121.55 58.5087 120.927 58.4046 119.888 58.0578L120.026 56.9133C120.961 57.3295 121.515 57.5029 122.416 57.5029C123.697 57.5029 124.459 56.6359 124.459 55.2486V54.5896H124.424C123.905 55.2833 123.039 55.6301 122.208 55.6301C120.303 55.6301 119.368 54.0694 119.368 52.37C119.368 50.6705 120.338 48.8671 122.312 48.8671C123.489 48.8671 124.113 49.2833 124.493 50.0116H124.528V49.0405H125.671V55.3526H125.636ZM124.424 52.4393C124.424 51.052 123.801 49.8728 122.485 49.8728C121.238 49.8728 120.65 51.2254 120.65 52.3353C120.65 53.5838 121.342 54.659 122.485 54.659C123.628 54.659 124.424 53.6532 124.424 52.4393Z" fill="#808184"/>
<defs>
<linearGradient id="paint0_linear" x1="3.51362" y1="18.8207" x2="28.0699" y2="18.8207" gradientUnits="userSpaceOnUse">
<stop stop-color="#FFEB1A"/>
<stop offset="1" stop-color="#E63D20"/>
</linearGradient>
</defs>
</svg>
