<?xml version="1.0" standalone="no"?>
<!DOCTYPE svg PUBLIC "-//W3C//DTD SVG 20010904//EN"
 "http://www.w3.org/TR/2001/REC-SVG-20010904/DTD/svg10.dtd">
<svg version="1.0" xmlns="http://www.w3.org/2000/svg"
 width="231.000000pt" height="231.000000pt" viewBox="0 0 231.000000 231.000000"
 preserveAspectRatio="xMidYMid meet">
<metadata>
Created by potrace 1.11, written by Peter Selinger 2001-2013
</metadata>
<g transform="translate(0.000000,231.000000) scale(0.100000,-0.100000)"
fill="#000000" stroke="none">
<path d="M990 2218 c-85 -50 -159 -94 -164 -98 -5 -5 -9 -94 -9 -198 l0 -189
-165 94 -165 95 -36 -18 c-20 -11 -96 -53 -169 -94 l-131 -75 -1 -580 0 -580
72 -40 c39 -22 97 -55 127 -72 31 -18 75 -43 97 -54 l42 -22 163 95 164 94 0
192 c0 106 1 192 3 192 2 0 34 -17 70 -39 37 -21 83 -48 102 -59 19 -10 63
-36 98 -57 l63 -37 -38 -20 c-21 -11 -52 -28 -68 -38 -17 -11 -42 -25 -55 -32
-77 -41 -170 -102 -171 -112 -1 -6 -2 -91 -3 -190 l-1 -178 25 -18 c14 -9 89
-54 167 -99 l142 -81 48 26 c26 15 60 35 75 45 14 11 28 19 31 19 10 0 177
101 178 108 0 4 1 88 2 187 2 149 -1 183 -13 195 -8 8 -82 53 -163 99 -81 46
-147 87 -147 90 0 5 314 191 322 191 2 0 2 -85 2 -190 l-1 -190 96 -56 c149
-88 184 -108 213 -123 25 -13 33 -10 130 45 57 32 117 67 133 76 17 10 45 26
63 35 l32 17 0 582 c0 545 -1 582 -17 588 -10 3 -25 10 -33 16 -48 32 -273
160 -283 160 -7 0 -61 -29 -121 -65 -60 -36 -111 -65 -113 -65 -2 0 -21 -11
-43 -25 -22 -14 -43 -25 -47 -25 -5 0 -8 84 -8 187 l0 188 -155 91 c-85 51
-162 94 -170 96 -8 3 -85 -35 -170 -84z"/>
</g>
</svg>
