<svg xmlns="http://www.w3.org/2000/svg" xmlns:xlink="http://www.w3.org/1999/xlink" width="69px" height="48px" viewBox="0 0 69 48" version="1.1" wtx-context="C022444B-8972-4A00-8750-D72B211C185D">
    <g id="Symbols" stroke="none" stroke-width="1" fill="none" fill-rule="evenodd">
        <g id="header/desktop" transform="translate(-32.000000, -24.000000)">
            <g id="container">
                <g id="logo" transform="translate(32.000000, 24.000000)">
                    <path d="M68.7702171,44.8509997 L68.8250977,44.9813163 C65.5628005,47.0131135 62.0098743,48 58.106905,48 C48.6120737,48 44.3595385,42.2529913 44.3595385,33.2549644 C44.3595385,28.6108905 45.6411212,24.7213686 48.2627464,21.6446608 C50.8838944,18.5679529 54.495519,17.0005869 59.097143,17.0005869 C65.3301542,17.0005869 69,19.8451981 69,25.4761585 C69,32.6162229 63.5243419,35.9832894 52.5732643,35.6349066 C52.8643704,39.3501181 54.9612888,41.7883223 59.1556028,41.7883223 C61.5767943,41.7883223 63.848615,41.1429223 65.9715421,39.8095554 L68.7702171,44.8509997 Z M52.5148044,30.2943048 C58.7478157,30.5266393 61.8934319,29.3654425 61.8934319,25.8825655 C61.8934319,23.8507683 60.8447341,22.863644 58.6893558,22.863644 C55.0197486,22.863644 52.6894681,26.1144243 52.5148044,30.2943048 Z M32.4542533,41.4982014 C28.027293,41.4982014 25.8136935,38.4795178 25.8136935,32.384364 C25.8136935,26.2887347 27.9690717,23.270051 32.2795896,23.270051 C32.9202616,23.270051 33.6193935,23.3863371 34.3185254,23.5604096 C34.959436,23.7344821 35.2503035,24.2569375 35.2503035,25.1857998 L35.2503035,28.3207696 L41.3084125,27.9143626 L41.3084125,19.2066944 C38.8037069,17.7551389 35.6580907,17.0005869 31.9882449,17.0005869 C24.7652343,16.9425627 17.5419851,21.1802296 17.5419851,32.732509 C17.5419851,42.7171846 22.5516348,48 31.4060327,48 C35.5418869,48 39.1532728,46.780779 42.1239868,44.3425748 L39.1532728,39.0019731 C36.8814522,40.6853875 34.6678527,41.4982014 32.4542533,41.4982014 Z M12.4168474,42.1947293 L15.4460212,42.3688018 L15.4460212,47.187186 L1.05822122,47.187186 L1.05822122,42.6011363 L2.98023735,42.4270638 C4.08715638,42.2529913 4.32004127,41.9626326 4.32004127,40.5113149 L4.32004127,24.4890341 C4.32004127,23.270051 4.02893516,22.863644 2.92201613,22.8056198 L1,22.6315473 L1,17.7551389 L12.4168474,17.7551389 L12.4168474,42.1947293 L12.4168474,42.1947293 Z" id="Fill-1" fill="#808184"/>
                    <path d="M6.1587121,1.4635444 C6.14466124,1.28790068 6.28566282,1.13478718 6.4742401,1.12145297 C6.66257087,1.10834866 6.82699054,1.23985155 6.84104139,1.41549527 C6.84252043,1.43112848 6.84227393,1.44837099 6.84104139,1.4635444 L6.73430419,2.78156201 L7.76963043,2.13830137 L7.76963043,0.789247241 L6.50012325,0 L5.23036957,0.789247241 L5.23036957,2.13830137 L6.26544931,2.78156201 L6.1587121,1.4635444 Z M1.35060773,5.59462034 L2.465802,5.08010378 L1.18840662,4.50742249 C1.01831731,4.43109564 0.946583992,4.24050841 1.02842407,4.0816474 C1.11026414,3.92278639 1.31461782,3.85588544 1.48495364,3.9322123 C1.50023703,3.9391093 1.51601343,3.94784551 1.52957127,3.95635181 L2.69998293,4.70145822 L2.62011491,3.54368103 L1.36761666,2.86915397 L0,3.5 L0.0978629805,4.92009327 L1.35060773,5.59462034 Z M1.05430722,9.95996453 C0.947816524,9.81466763 0.987750536,9.61603389 1.14378899,9.51671703 C1.15783985,9.50775092 1.17386275,9.49947451 1.18865313,9.49257751 L2.465802,8.91989622 L1.35060773,8.40537966 L0.0978629805,9.07990673 L0,10.5 L1.36761666,11.130846 L2.62011491,10.456319 L2.69998293,9.29854178 L1.52957127,10.0436482 C1.37377932,10.1429651 1.16079792,10.1057212 1.05430722,9.95996453 Z M6.8412879,12.5364556 C6.85533876,12.7120993 6.71433718,12.8652128 6.5257599,12.878547 C6.33742913,12.8916513 6.17300946,12.7601484 6.15895861,12.5842748 C6.15747957,12.5688715 6.15772607,12.5513991 6.15895861,12.5364556 L6.26569581,11.218438 L5.23036957,11.8616986 L5.23036957,13.2107528 L6.50012325,14 L7.76963043,13.2107528 L7.76963043,11.8616986 L6.73430419,11.218438 L6.8412879,12.5364556 Z M12.902137,9.07990673 L11.6493923,8.40537966 L10.534198,8.91989622 L11.8115934,9.49257751 C11.9816827,9.56890436 12.053416,9.75949159 11.9715759,9.9183526 C11.8897359,10.0772136 11.6853822,10.1441146 11.5150464,10.0677877 C11.499763,10.0608907 11.4839866,10.0521545 11.4704287,10.0436482 L10.3000171,9.29854178 L10.3798851,10.456319 L11.6323833,11.130846 L13,10.5 L12.902137,9.07990673 Z M11.4704287,3.95635181 L10.3000171,4.70145822 L10.3798851,3.54368103 L11.6323833,2.86915397 L13,3.5 L12.902137,4.92009327 L11.6493923,5.59462034 L10.534198,5.08010378 L11.8113469,4.50742249 C11.8261372,4.50052549 11.8421602,4.49224908 11.856211,4.48328297 C12.0122495,4.38396611 12.0521835,4.18533237 11.9456928,4.03980557 C11.8392021,3.89427877 11.6262207,3.85703494 11.4704287,3.95635181 L11.4704287,3.95635181 Z M7.8159736,7.70096558 C7.81276902,7.69958618 7.80709938,7.70326458 7.80709938,7.70326458 L7.80882492,7.71246059 L9.91201623,9.05139911 L9.8950073,9.70063715 L9.34480535,9.89881109 L8.7033961,9.55350105 L8.64103002,8.80471624 C8.37554279,8.72632028 8.10463242,8.62309511 7.84974496,8.48561482 C7.49354343,8.29387809 7.22707018,8.06742643 7.02764662,7.84948108 C7.13142575,8.11961377 7.20907522,8.44860089 7.20907522,8.83299396 C7.20907522,9.10818445 7.16914121,9.37946663 7.10850067,9.63350631 L7.76963043,10.0565226 L7.76963043,10.7471427 L7.31038929,11.0924527 L6.6990538,10.7813978 L6.50702543,8.41319627 L6.50061627,8.40721886 L6.49297457,8.41319627 L6.3009462,10.7813978 L5.68985722,11.0924527 L5.23061608,10.7471427 L5.23061608,10.0565226 L5.89470391,9.6314372 C5.83480289,9.37808723 5.79536189,9.10749475 5.79536189,8.83299396 C5.79536189,8.44952049 5.87227184,8.12076327 5.97506494,7.85109038 C5.7758879,8.06972543 5.50916814,8.29709669 5.1524736,8.48929322 C4.89684662,8.62700342 4.62519673,8.73022859 4.35872348,8.80839464 L4.2966039,9.55373095 L3.65519465,9.89904099 L3.1049927,9.70063715 L3.08823027,9.05139911 L5.19413315,7.71062139 L5.19364014,7.70395428 L5.1840264,7.70096558 L2.88929973,8.72999869 L2.29472666,8.39181555 L2.38568747,7.84810168 L3.02709673,7.50279164 L3.75379714,7.82695087 C3.95913685,7.65153705 4.19060622,7.48439963 4.44574018,7.34714924 C4.8016952,7.15541251 5.14532491,7.05333684 5.44729507,7.0013794 C5.1445854,6.95011167 4.80021617,6.8484958 4.44327512,6.65629926 C4.18789465,6.51858907 3.95593227,6.35076195 3.75034606,6.17488833 L3.02685022,6.49720836 L2.38568747,6.15189832 L2.29472666,5.60818445 L2.88905323,5.27000131 L5.18723098,6.30041382 L5.19290062,6.29673542 L5.19117508,6.28753941 L3.08798377,4.94860089 L3.1049927,4.29936285 L3.65519465,4.10118891 L4.2966039,4.44649895 L4.35896998,5.19528376 C4.62445721,5.27367972 4.89536758,5.37690489 5.15025504,5.51438518 C5.50645657,5.70612191 5.77292982,5.93257357 5.97235338,6.15051892 C5.86857425,5.88038623 5.79092478,5.55139911 5.79092478,5.16700604 C5.79092478,4.89181555 5.83085879,4.62053337 5.89149933,4.36649369 L5.23036957,3.9434774 L5.23036957,3.25285733 L5.68961071,2.90754729 L6.3009462,3.21860221 L6.49322108,5.58979243 C6.49322108,5.58979243 6.49593265,5.59255123 6.49938373,5.59278114 L6.50702543,5.58680373 L6.6990538,3.21860221 L7.31014278,2.90754729 L7.76938392,3.25285733 L7.76938392,3.9434774 L7.10529609,4.3685628 C7.16519711,4.62191277 7.20463811,4.89250525 7.20463811,5.16700604 C7.20463811,5.55047951 7.12772816,5.87900683 7.02493506,6.14890962 C7.2241121,5.93027457 7.49083186,5.70290331 7.8475264,5.51070678 C8.10315338,5.37299658 8.37480327,5.26977141 8.64127652,5.19160536 L8.7033961,4.44626905 L9.34480535,4.10095901 L9.8950073,4.29936285 L9.91176973,4.94860089 L7.80882492,6.28753941 L7.8080854,6.29926432 C7.8080854,6.29926432 7.81252252,6.30064372 7.8159736,6.29903442 L10.1107003,5.27000131 L10.7052733,5.60818445 L10.6143125,6.15189832 L9.97290327,6.49697846 L9.24620286,6.17304913 C9.04086315,6.34823305 8.80939378,6.51560037 8.55450632,6.65262086 C8.1983048,6.84458749 7.85467509,6.94643326 7.55270493,6.9986206 C7.8554146,7.04988833 8.19978383,7.1515042 8.55672488,7.34370074 C8.81210535,7.48141093 9.04406773,7.64923805 9.24965394,7.82511167 L9.97314978,7.50279164 L10.6143125,7.84810168 L10.7052733,8.39181555 L10.1109468,8.72999869 L7.8159736,7.70096558 Z" id="Fill-2" fill="#FFB900"/>
                </g>
            </g>
        </g>
    </g>
</svg>
